<svg xmlns="http://www.w3.org/2000/svg" width="168" height="40" fill="none" viewBox="0 0 168 40">
  <g clip-path="url(#a)">
    <path fill="#13002D" d="M59.205 21.161c1.907-1.53 3.37-3.193 4.518-5.013 1.15-1.768 1.959-3.51 2.455-5.172.496-1.715.758-3.087.758-4.169 0-1.108-.105-2.137-.445-3.14-.339-1.002-.783-1.846-1.514-2.374-4.022-2.85-8.958 1.504-10.055 3.219.209-1.82.209-1.9.209-2.612 0-.607-.104-1.056-.392-1.32-.209-.21-.522-.606-2.115-.606-2.612 0-2.951 1.002-3.004 2.19-.443 6.992-1.149 19.736.157 36.121.21 1.108.627 1.741 1.802 1.662 1.541-.132 1.515-1.477 1.515-2.744 0-4.617.157-10.132.496-16.385.21-3.8.496-7.203.81-10.449.052-.712.34-1.372.757-2.137a20.223 20.223 0 0 1 2.56-3.403c.914-.924 1.75-1.425 2.454-1.425 1.045 0 1.515 1.108 1.515 3.245 0 1.583-.261 3.351-.81 5.172-.548 1.82-1.357 3.509-2.559 5.118-.6.871-1.462 1.583-2.611 2.085-.81.343-1.254.765-1.254 1.213 0 .607 1.41 3.642 4.361 9.235 1.515 2.903 3.056 5.436 4.623 7.652.34.501.757.765 1.201.765.21 0 .444 0 .705-.105.549-.211.81-.607.81-1.161 0-.818-1.515-4.354-4.518-10.449l-2.429-5.013Z"/>
    <path fill="#13002D" d="M80.229 12.19c-1.28-1.16-2.847-1.768-4.754-1.9h-.861c-1.62 0-3.004.317-4.283.845-1.62.844-2.769 2.137-3.474 3.773a13.017 13.017 0 0 0-.862 4.696c0 .317.052.58.052.924a12.678 12.678 0 0 0 1.515 5.409c.862 1.636 2.09 2.744 3.578 3.377.914.317 1.907.528 2.847.528.418 0 .81 0 1.149-.053a9.48 9.48 0 0 0 3.813-1.425c1.62-1.108 2.768-2.744 3.421-4.696.418-1.24.575-2.533.575-3.853 0-.791-.053-1.504-.183-2.269-.34-2.084-1.201-3.852-2.533-5.356Zm-.314 9.763c-.287 1.213-.862 2.269-1.724 3.008-.652.527-1.331.87-2.063 1.055a2.455 2.455 0 0 1-.653.079c-.522.053-1.07-.026-1.593-.185-.862-.316-1.593-.95-2.141-1.9a8.196 8.196 0 0 1-1.045-3.218c0-.212-.052-.343-.078-.555-.052-1.002.026-1.952.313-2.902.314-1.029.914-1.873 1.802-2.454a6 6 0 0 1 2.35-.712l.497-.027c1.07 0 1.959.29 2.716.95.81.845 1.358 1.874 1.62 3.14.104.475.156.897.182 1.372a10.18 10.18 0 0 1-.183 2.349Z"/>
    <path fill="#13002D" d="M96.786 21.9c-2.298-.317-1.697 4.512-4.596 4.696-4.022.264-5.354-12.85-.105-12.85 2.35 0 1.698 3.299 3.866 3.035 2.089-.29 1.566-6.49-4.492-6.49-9.298 0-9.977 18.6-.497 19.498 7.156.712 7.783-7.546 5.824-7.89Zm29.564 0c-1.881-.264-1.489 5.198-5.772 4.96-.81-.053-1.358-.58-1.802-1.24a5.718 5.718 0 0 1-.914-2.296 8.448 8.448 0 0 1-.183-1.767v-.58a19.624 19.624 0 0 0 3.421-.45 9.87 9.87 0 0 0 3.239-1.319 6.393 6.393 0 0 0 1.619-1.635c.392-.58.653-1.372.705-2.217v-.184c0-1.452-.444-2.613-1.358-3.404-.914-.845-2.063-1.372-3.369-1.557-.522-.053-1.045-.132-1.489-.132-1.749 0-3.238.449-4.466 1.372-1.566 1.108-2.533 3.008-2.977 5.62-.183.924-.261 1.9-.261 2.876 0 .713.052 1.451.131 2.217.261 1.767.783 3.324 1.619 4.696.836 1.372 2.141 2.296 3.813 2.823a6.602 6.602 0 0 0 1.88.264c6.111 0 8.697-7.704 6.164-8.047Zm-2.899-7.467c1.305 2.665-5.119 3.773-5.955 3.456.653-5.277 5.171-5.013 5.955-3.456Zm43.065-2.903c-.47-.844-1.254-.712-1.75-.686-2.22.132-1.88 3.694-1.88 4.328-.157 2.85-2.324 9.656-4.988 9.656-3.526 0-1.75-10.817-1.698-11.345.079-.818.496-2.665-1.462-2.612-2.116.053-2.298 2.612-2.377 3.483 0 .448-1.619 12.85 5.249 13.271 2.664.159 4.153-1.398 5.015-2.823 0 0 .339 12.032-4.675 11.953-3.291-.053-3.003-6.702-5.693-5.304-1.593.475-.653 8.523 6.659 8.523 9.689 0 8.619-26.57 7.6-28.444Zm-59.31 10.95s-.496-.712-.966-1.398a45.999 45.999 0 0 0 2.272-2.27c.288-.316.784-.844 1.463-1.582.679-.74 1.175-1.53 1.488-2.349.157-.37.053-.844-.444-1.213-.6-.423-1.044-.317-1.358 0-1.018 1.081-4.283 4.38-6.267 5.567 0-6.385 1.07-15.567 1.201-17.546.026-.528 0-1.61-2.612-1.61-2.846 0-3.003.924-3.055 1.98-.13 2.664-.784 14.51.862 30.421.104.977.887 1.504 1.88 1.399 1.541-.185 1.541-1.32 1.515-2.428-.027-1.16 0-5.224.078-7.704l.392-.317a56.754 56.754 0 0 0 3.943 4.433c.314.316.81.818 1.541 1.504a7.66 7.66 0 0 0 2.298 1.583c.366.158.836.079 1.228-.422.365-.502.339-1.056.052-1.372-1.123-1.161-4.962-5.858-5.511-6.676Zm31.549-11.82c-.105-.528-.575-.58-.914-.58-.993-.027-1.881 0-2.795-.027.026-.422.052-.845.079-1.056 0 0 .626-7.097.626-7.599 0-.422-.104-.738-.365-.923a1.858 1.858 0 0 0-.862-.343c-.34-.026-.705-.053-1.097-.053-.444 0-.836.053-1.227.106-.941.184-1.437.66-1.463 1.53-.104 1.82-.183 5.198-.183 8.417-.13 0-1.697.026-2.611.396-.418.184-.523.712-.444 1.556.078.924.496 1.636.861 1.584.418-.027 1.202-.343 2.142-.449.052 0 .131.053.131.106.078 5.013.313 11.16.992 15.699.131.791.731 1.24 1.776 1.16 1.28-.105 1.358-1.108 1.332-2.005-.052-2.348.078-10.158.235-14.802 0-.079.052-.132.13-.132.549 0 2.56.027 2.743.027.156-.027.574-.132.705-.238.287-.37.391-1.636.209-2.374Zm11.282-.343c-.966-.264-2.507-.264-3.63-.264 0-2.612-.235-6.412 2.298-6.412 1.645 0 3.082.027 3.212-1.451.157-1.82-1.41-2.164-2.324-2.137-1.645.026-3.97.026-5.772 1.82-1.906 1.874-1.645 6.016-1.697 8.153 0 0-.705 0-1.28.08-.601.079-.784.58-.784 1.398 0 .87.183 1.662.862 1.662h.941c.078 0 .156.08.156.159-.104 5.092-.209 14.116.079 18.918.026.87.522 1.345 1.488 1.53.392.053.81.106 1.254.106.391 0 .757-.027 1.097-.053.365-.026.653-.185.861-.343.262-.185.366-.502.366-.95 0-.501-.548-8.628-.548-8.628-.079-.844-.105-6.728-.157-10.528 0-.132.104-.237.235-.237.914.026 2.194.21 3.369.527.444.133 1.018-.448 1.123-1.9.052-1.213-.836-1.371-1.149-1.45Z"/>
    <path fill="#5900FF" d="M6.398 33.245s.262-3.482 3.343-6.438v-2.612c-1.802.713-3.839 1.768-5.327 3.378C-.575 32.98.104 37.546 0 39.393c-.026.317.235.528.548.554 1.907.08 7.313-.184 11.44-4.617 1.514-1.61 2.559-3.483 3.264-5.304h-2.325c-2.925 2.955-6.529 3.22-6.529 3.22Z"/>
    <path fill="#5900FF" d="M38.913 1.003c-.078-.528-.078-.528-.6-.607-3.24-.528-14.286-1.9-23.74 9.683l-5.354.026c-.392.08-.757.344-.914.713l-3.552 8.285c-.183.396.052.844.496.844h4.936c-.156.37-.34 2.27-.34 2.77 0 .502-.443.027 3.24 3.827 3.76 3.799 4.491 3.403 5.17 3.298a54.288 54.288 0 0 0 1.306-.185l-.026 4.908c0 .422.418.686.835.501l8.227-3.562a1.33 1.33 0 0 0 .705-.924s-.052-5.092 0-5.118c10.89-8.734 10.212-20.897 9.61-24.46ZM24.366 19.947c-2.716 0-4.91-2.216-4.91-4.96 0-2.744 2.22-4.934 4.91-4.934 2.716 0 4.91 2.216 4.91 4.96a4.907 4.907 0 0 1-4.91 4.934Z"/>
    <path fill="#5900FF" d="M24.366 11.873c-1.697 0-3.107 1.399-3.107 3.14 0 1.715 1.384 3.14 3.107 3.14 1.698 0 3.108-1.398 3.108-3.14 0-1.741-1.384-3.14-3.108-3.14Z"/>
  </g>
  <defs>
    <clipPath id="a">
      <path fill="#fff" d="M0 0h167.143v40H0z"/>
    </clipPath>
  </defs>
</svg>
